<svg xmlns="http://www.w3.org/2000/svg" style="display:none">
  <defs>
    <style>
      .sv-icon-stroke {
        fill: none;
        stroke: currentColor;
        stroke-width: 2.25;
        stroke-linecap: round;
        stroke-linejoin: round;
        vector-effect: non-scaling-stroke;
      }
    </style>
  </defs>
  <symbol id="sound-healing" viewBox="0 0 64 64"><g class="sv-icon-stroke">
<ellipse cx="28" cy="38" rx="16" ry="10"/>
<path d="M12 38v6c0 5 7 9 16 9s16-4 16-9v-6"/>
<path d="M27 22l13 10"/>
<rect x="38" y="17" width="10" height="5" rx="2" transform="rotate(38 38 17)"/>
<path d="M20 54h16"/>
</g></symbol><symbol id="yoga-flows" viewBox="0 0 64 64"><g class="sv-icon-stroke">
<circle cx="32" cy="14" r="5"/>
<path d="M24 26c3-4 13-4 16 0"/>
<path d="M18 28c4 6 8 10 14 10s10-4 14-10"/>
<path d="M19 44c4-2 7-3 13-3s9 1 13 3"/>
<path d="M22 38l-8 9"/>
<path d="M42 38l8 9"/>
<path d="M30 28l-4 13"/>
<path d="M34 28l4 13"/>
</g></symbol><symbol id="breathwork" viewBox="0 0 64 64"><g class="sv-icon-stroke">
<path d="M12 34c8 0 11-3 14-9 2-5 7-8 13-8 6 0 11 4 13 9"/>
<path d="M14 42c10 0 13-2 17-6"/>
<path d="M43 28c4 1 6 4 6 7 0 3-2 6-6 7"/>
<path d="M49 42c4 1 6 4 6 7 0 3-2 6-6 7"/>
</g></symbol><symbol id="meditation" viewBox="0 0 64 64"><g class="sv-icon-stroke">
<circle cx="32" cy="13" r="5"/>
<path d="M25 24c4-3 10-3 14 0"/>
<path d="M20 31c5 4 8 8 12 8s7-4 12-8"/>
<path d="M20 31l-8 10"/>
<path d="M44 31l8 10"/>
<path d="M24 43c5-2 11-2 16 0"/>
<path d="M18 47c9 4 19 4 28 0"/>
</g></symbol><symbol id="location" viewBox="0 0 64 64"><g class="sv-icon-stroke">
<path d="M32 54s-14-13-14-25c0-8 6-15 14-15s14 7 14 15c0 12-14 25-14 25z"/>
<circle cx="32" cy="29" r="5"/>
</g></symbol><symbol id="envelope" viewBox="0 0 64 64"><g class="sv-icon-stroke">
<rect x="12" y="18" width="40" height="28" rx="3"/>
<path d="M14 21l18 14 18-14"/>
<path d="M14 44l13-11"/>
<path d="M50 44L37 33"/>
</g></symbol><symbol id="travel" viewBox="0 0 64 64"><g class="sv-icon-stroke">
<path d="M10 36l18-3 8-16 5 1-3 15 14 7-1 5-16-2-7 11-4-1 3-12-12 2z"/>
<path d="M22 26l4 6"/>
</g></symbol><symbol id="relax-release" viewBox="0 0 64 64"><g class="sv-icon-stroke">
<path d="M14 41c6 0 9 4 18 4s12-4 18-4"/>
<path d="M18 49c5 0 7 3 14 3s9-3 14-3"/>
<path d="M32 18c3-5 9-8 14-8 0 7-2 12-8 16"/>
<path d="M32 18c-3-5-9-8-14-8 0 7 2 12 8 16"/>
<path d="M32 18c0 12 0 17 0 24"/>
<path d="M32 26c-2-5-8-7-13-6 2 7 6 11 13 12"/>
<path d="M32 26c2-5 8-7 13-6-2 7-6 11-13 12"/>
</g></symbol><symbol id="heal-restore" viewBox="0 0 64 64"><g class="sv-icon-stroke">
<path d="M16 36c0-5 4-9 9-9 4 0 7 2 9 6 2-4 5-6 9-6 5 0 9 4 9 9 0 8-8 14-18 22C24 50 16 44 16 36z"/>
<path d="M17 41c3 2 7 3 15 3s12-1 15-3"/>
</g></symbol><symbol id="elevate-energy" viewBox="0 0 64 64"><g class="sv-icon-stroke">
<path d="M32 14l4 12 12 4-12 4-4 12-4-12-12-4 12-4z"/>
<path d="M32 6v5"/><path d="M32 49v5"/><path d="M6 30h5"/><path d="M53 30h5"/>
<path d="M14 14l4 4"/><path d="M46 46l4 4"/><path d="M50 14l-4 4"/><path d="M18 46l-4 4"/>
</g></symbol><symbol id="move-body" viewBox="0 0 64 64"><g class="sv-icon-stroke">
<circle cx="38" cy="12" r="4"/>
<path d="M26 24l12-6 8 8"/>
<path d="M35 20l-5 11"/>
<path d="M30 31l-12 8"/>
<path d="M31 31l8 12"/>
<path d="M46 26l10 9"/>
<path d="M39 43l-1 11"/>
</g></symbol><symbol id="sound-on-the-river" viewBox="0 0 64 64"><g class="sv-icon-stroke">
<ellipse cx="26" cy="30" rx="14" ry="9"/>
<path d="M12 30v5c0 4 6 8 14 8s14-4 14-8v-5"/>
<path d="M24 17l11 8"/>
<rect x="35" y="13" width="9" height="4" rx="2" transform="rotate(36 35 13)"/>
<path d="M10 48c5 0 7-2 11-2s6 2 11 2 7-2 11-2 6 2 11 2"/>
<path d="M10 54c5 0 7-2 11-2s6 2 11 2 7-2 11-2 6 2 11 2"/>
</g></symbol><symbol id="bodywork" viewBox="0 0 64 64"><g class="sv-icon-stroke">
<path d="M12 39c6 0 8-5 12-5 3 0 5 3 8 3s5-3 8-3c4 0 6 5 12 5"/>
<path d="M18 39c2 8 7 13 14 13s12-5 14-13"/>
<path d="M24 27c0-5 4-9 8-9s8 4 8 9"/>
<path d="M32 18v18"/>
</g></symbol><symbol id="wellness" viewBox="0 0 64 64"><g class="sv-icon-stroke">
<path d="M20 44c10-8 11-18 10-28-10 0-18 9-18 19 0 4 2 7 8 9z"/>
<path d="M44 44c-10-8-11-18-10-28 10 0 18 9 18 19 0 4-2 7-8 9z"/>
<path d="M32 22v28"/>
</g></symbol><symbol id="private-sound-healing" viewBox="0 0 64 64"><g class="sv-icon-stroke">
<path d="M8 41c5 0 7-5 12-5h18c5 0 7 5 12 5"/>
<circle cx="18" cy="29" r="4"/>
<path d="M14 36l4-3 4 3"/>
<circle cx="46" cy="18" r="4"/>
<path d="M42 29c1-5 4-8 8-8s7 3 8 8"/>
<ellipse cx="48" cy="38" rx="8" ry="5"/>
<path d="M40 38v4c0 3 4 6 8 6s8-3 8-6v-4"/>
<path d="M47 25l5 8"/>
</g></symbol><symbol id="yoga" viewBox="0 0 64 64"><g class="sv-icon-stroke">
<circle cx="34" cy="11" r="4"/>
<path d="M24 25l10-8 7 6"/>
<path d="M31 22l-8 13"/>
<path d="M23 35H11"/>
<path d="M31 22l11 15"/>
<path d="M42 37h12"/>
<path d="M30 34l-2 17"/>
<path d="M43 37l2 14"/>
</g></symbol><symbol id="energy-work" viewBox="0 0 64 64"><g class="sv-icon-stroke">
<path d="M14 40c5 0 8-10 18-10s13 10 18 10"/>
<path d="M18 47c4 0 6-4 14-4s10 4 14 4"/>
<path d="M32 26c0-8 6-12 6-18 0 0 8 7 8 14s-6 10-14 10z"/>
<path d="M32 26c0-8-6-12-6-18 0 0-8 7-8 14s6 10 14 10z"/>
</g></symbol><symbol id="guided-meditation" viewBox="0 0 64 64"><g class="sv-icon-stroke">
<path d="M16 32a16 16 0 1 1 32 0"/>
<path d="M12 32a20 20 0 1 1 40 0"/>
<path d="M14 40c4 0 5 6 8 6s4-6 8-6 5 6 8 6 4-6 8-6 4 6 8 6"/>
<path d="M32 16v16"/>
<path d="M24 24l8 8 8-8"/>
</g></symbol><symbol id="ceremonies-rituals" viewBox="0 0 64 64"><g class="sv-icon-stroke">
<path d="M18 48h28"/>
<path d="M22 48l4-22h12l4 22"/>
<path d="M26 26c0-6 3-9 6-13 3 4 6 7 6 13"/>
<path d="M32 12V7"/>
<path d="M20 20l-4-4"/><path d="M44 20l4-4"/>
<path d="M14 34h-5"/><path d="M55 34h-5"/>
</g></symbol><symbol id="custom-activation" viewBox="0 0 64 64"><g class="sv-icon-stroke">
<path d="M32 10l3 9 9 3-9 3-3 9-3-9-9-3 9-3z"/>
<circle cx="20" cy="44" r="4"/><circle cx="44" cy="44" r="4"/>
<path d="M24 44h16"/>
<path d="M20 48v6"/><path d="M44 48v6"/>
</g></symbol>
</svg>